<svg width="542" height="319" viewBox="0 0 542 319" fill="none" xmlns="http://www.w3.org/2000/svg">
<path fill-rule="evenodd" clip-rule="evenodd" d="M238 282C315.872 282 379 218.872 379 141C379 63.1278 315.872 0 238 0C160.128 0 97 63.1278 97 141C97 218.872 160.128 282 238 282ZM238 235C289.915 235 332 192.915 332 141C332 89.0853 289.915 47.0001 238 47.0001C186.085 47.0001 144 89.0853 144 141C144 192.915 186.085 235 238 235Z" fill="url(#paint0_linear_37_197)" fill-opacity="0.4"/>
<path fill-rule="evenodd" clip-rule="evenodd" d="M229.846 210.003C229.689 213.053 229.414 216.071 229.024 219.054L99.9459 89.9765C102.929 89.5865 105.947 89.3108 108.997 89.154L229.846 210.003ZM89.3079 91.8807C92.3936 91.1766 95.5266 90.5965 98.7013 90.1461L228.854 220.299C228.403 223.473 227.823 226.606 227.119 229.692L89.3079 91.8807ZM221.374 247.778C222.346 245.419 223.241 243.021 224.058 240.587L78.413 94.9423C75.9788 95.7586 73.5809 96.6541 71.2225 97.6258L221.374 247.778ZM70.2248 98.0423C67.6468 99.1331 65.1169 100.315 62.639 101.585L217.415 256.361C218.685 253.883 219.867 251.353 220.958 248.775L70.2248 98.0423ZM227.789 181.447C226.881 176.88 225.703 172.41 224.271 168.055L150.945 94.7292C146.59 93.2974 142.12 92.1187 137.553 91.2105L227.789 181.447ZM135.805 90.8771C131.637 90.1155 127.391 89.5786 123.079 89.2794L229.721 195.921C229.421 191.609 228.884 187.363 228.123 183.195L135.805 90.8771ZM230 204C230 205.558 229.969 207.108 229.908 208.65L110.35 89.0923C111.892 89.031 113.442 89 115 89C117.205 89 119.396 89.0621 121.57 89.1845L229.815 197.43C229.938 199.604 230 201.795 230 204ZM226.851 230.839C226.148 233.779 225.333 236.676 224.408 239.524L79.4764 94.5915C82.3243 93.6675 85.221 92.8515 88.1615 92.1486L226.851 230.839ZM213.693 144.935C217.647 151.527 220.959 158.549 223.543 165.913L153.087 95.457C160.451 98.0409 167.473 101.353 174.065 105.307L213.693 144.935ZM61.7074 102.067C59.2931 103.332 56.9293 104.68 54.6198 106.108L212.892 264.38C214.32 262.071 215.668 259.707 216.933 257.293L61.7074 102.067ZM212.349 265.251L53.7492 106.651C51.7409 107.917 49.7746 109.244 47.8527 110.629L208.371 271.147C209.756 269.225 211.083 267.259 212.349 265.251ZM207.776 271.966L47.0339 111.224C44.9022 112.788 42.8265 114.424 40.8102 116.128L202.872 278.19C204.576 276.174 206.212 274.098 207.776 271.966ZM177.851 107.679C191.187 116.399 202.601 127.813 211.321 141.149L177.851 107.679ZM202.221 278.953L40.0468 116.779C38.0555 118.492 36.1236 120.272 34.2544 122.115L196.885 284.746C198.728 282.876 200.508 280.944 202.221 278.953ZM196.18 285.455C194.531 287.098 192.832 288.692 191.086 290.234L28.7659 127.914C30.3077 126.168 31.9017 124.469 33.5455 122.82L196.18 285.455ZM184.181 295.872C186.289 294.282 188.34 292.622 190.331 290.894L28.1059 128.669C26.3781 130.66 24.7176 132.711 23.128 134.819L184.181 295.872ZM183.372 296.477L22.5231 135.628C20.9372 137.77 19.4239 139.968 17.9869 142.22L176.78 301.013C179.032 299.576 181.23 298.063 183.372 296.477ZM168.754 305.69C166.306 306.987 163.805 308.198 161.255 309.319L9.681 157.745C10.8023 155.195 12.0134 152.694 13.3104 150.246L168.754 305.69ZM169.675 305.196L13.8036 149.325C14.9517 147.204 16.1645 145.124 17.4393 143.087L175.913 301.561C173.876 302.836 171.796 304.048 169.675 305.196ZM160.269 309.747L9.25283 158.731C8.1256 161.36 7.09359 164.041 6.16115 166.767L152.233 312.839C154.96 311.906 157.64 310.874 160.269 309.747ZM151.175 313.195C148.666 314.026 146.119 314.772 143.538 315.431L3.56856 175.462C4.22779 172.881 4.9744 170.334 5.80504 167.825L151.175 313.195ZM133.141 317.577C136.273 317.081 139.364 316.458 142.406 315.714L3.2858 176.594C2.54193 179.636 1.91912 182.727 1.42276 185.859L133.141 317.577ZM0.199033 197.177C0.398305 193.771 0.745806 190.405 1.23518 187.085L131.915 317.765C128.595 318.254 125.229 318.602 121.823 318.801L0.199033 197.177ZM0.12823 198.521L120.479 318.872C118.663 318.957 116.837 319 115 319C113.544 319 112.095 318.973 110.653 318.919L0.0806469 208.347C0.0270406 206.905 0 205.456 0 204C0 202.163 0.0430615 200.337 0.12823 198.521ZM0.145002 209.826L109.174 318.855C104.97 318.645 100.825 318.21 96.7513 317.56L1.43985 222.249C0.790356 218.175 0.35478 214.03 0.145002 209.826ZM1.72367 223.947L95.0533 317.276C90.0261 316.397 85.1111 315.192 80.331 313.682L5.31795 238.669C3.80846 233.889 2.60282 228.974 1.72367 223.947ZM6.00343 240.769C8.38723 247.838 11.4395 254.599 15.085 260.978L58.0217 303.915C64.4006 307.561 71.1622 310.613 78.2313 312.997L6.00343 240.769ZM17.1644 264.472C26.5542 279.631 39.3689 292.446 54.5281 301.836L17.1644 264.472Z" fill="url(#paint1_linear_37_197)" fill-opacity="0.4"/>
<path d="M185.456 185.72C181.52 185.72 177.896 185.072 174.584 183.776C171.272 182.48 168.392 180.68 165.944 178.376C163.496 176.024 161.6 173.288 160.256 170.168C158.912 167 158.24 163.544 158.24 159.8C158.24 156.056 158.912 152.624 160.256 149.504C161.6 146.336 163.496 143.6 165.944 141.296C168.392 138.944 171.272 137.12 174.584 135.824C177.896 134.528 181.496 133.88 185.384 133.88C189.32 133.88 192.92 134.528 196.184 135.824C199.496 137.12 202.376 138.944 204.824 141.296C207.272 143.6 209.168 146.336 210.512 149.504C211.856 152.624 212.528 156.056 212.528 159.8C212.528 163.544 211.856 167 210.512 170.168C209.168 173.336 207.272 176.072 204.824 178.376C202.376 180.68 199.496 182.48 196.184 183.776C192.92 185.072 189.344 185.72 185.456 185.72ZM185.384 177.512C187.928 177.512 190.28 177.08 192.44 176.216C194.6 175.352 196.472 174.128 198.056 172.544C199.64 170.912 200.864 169.04 201.728 166.928C202.64 164.768 203.096 162.392 203.096 159.8C203.096 157.208 202.64 154.856 201.728 152.744C200.864 150.584 199.64 148.712 198.056 147.128C196.472 145.496 194.6 144.248 192.44 143.384C190.28 142.52 187.928 142.088 185.384 142.088C182.84 142.088 180.488 142.52 178.328 143.384C176.216 144.248 174.344 145.496 172.712 147.128C171.128 148.712 169.88 150.584 168.968 152.744C168.104 154.856 167.672 157.208 167.672 159.8C167.672 162.344 168.104 164.696 168.968 166.856C169.88 169.016 171.128 170.912 172.712 172.544C174.296 174.128 176.168 175.352 178.328 176.216C180.488 177.08 182.84 177.512 185.384 177.512ZM240.228 185.72C237.06 185.72 234.228 185.24 231.732 184.28C229.236 183.32 227.076 181.856 225.252 179.888C223.476 177.872 222.108 175.328 221.148 172.256C220.188 169.184 219.708 165.536 219.708 161.312C219.708 158.24 219.972 155.432 220.5 152.888C221.028 150.344 221.82 148.064 222.876 146.048C223.932 143.984 225.252 142.16 226.836 140.576C228.468 138.992 230.364 137.672 232.524 136.616C234.684 135.56 237.132 134.744 239.868 134.168L257.724 130.352L259.02 138.416L242.82 141.728C241.908 141.92 240.804 142.208 239.508 142.592C238.26 142.928 236.964 143.456 235.62 144.176C234.324 144.848 233.1 145.832 231.948 147.128C230.844 148.376 229.932 150.008 229.212 152.024C228.54 153.992 228.204 156.464 228.204 159.44C228.204 160.352 228.228 161.048 228.276 161.528C228.372 161.96 228.444 162.44 228.492 162.968C228.588 163.448 228.636 164.168 228.636 165.128L225.252 161.6C226.212 159.152 227.532 157.064 229.212 155.336C230.94 153.56 232.932 152.216 235.188 151.304C237.492 150.344 239.988 149.864 242.676 149.864C246.276 149.864 249.468 150.608 252.252 152.096C255.036 153.584 257.22 155.672 258.804 158.36C260.388 161.048 261.18 164.096 261.18 167.504C261.18 171.056 260.316 174.2 258.588 176.936C256.86 179.672 254.412 181.832 251.244 183.416C248.124 184.952 244.452 185.72 240.228 185.72ZM240.948 178.448C243.108 178.448 245.004 177.992 246.636 177.08C248.316 176.12 249.612 174.824 250.524 173.192C251.484 171.56 251.964 169.736 251.964 167.72C251.964 165.704 251.484 163.952 250.524 162.464C249.612 160.928 248.316 159.704 246.636 158.792C245.004 157.88 243.06 157.424 240.804 157.424C238.644 157.424 236.7 157.856 234.972 158.72C233.292 159.584 231.972 160.784 231.012 162.32C230.1 163.808 229.644 165.536 229.644 167.504C229.644 169.52 230.124 171.368 231.084 173.048C232.044 174.728 233.364 176.048 235.044 177.008C236.772 177.968 238.74 178.448 240.948 178.448ZM272.293 199.472C270.421 199.472 268.549 199.16 266.677 198.536C264.805 197.912 263.245 197.048 261.997 195.944L265.597 189.32C266.509 190.136 267.541 190.784 268.693 191.264C269.845 191.744 271.021 191.984 272.221 191.984C273.853 191.984 275.173 191.576 276.181 190.76C277.189 189.944 278.125 188.576 278.989 186.656L281.221 181.616L281.941 180.536L296.485 146.552H305.125L287.125 188.096C285.925 190.976 284.581 193.256 283.093 194.936C281.653 196.616 280.021 197.792 278.197 198.464C276.421 199.136 274.453 199.472 272.293 199.472ZM280.213 186.368L262.861 146.552H272.221L286.333 179.744L280.213 186.368ZM335.64 169.808C333.816 170.672 331.872 171.392 329.808 171.968C327.792 172.496 325.656 172.76 323.4 172.76C318.552 172.76 314.784 171.632 312.096 169.376C309.408 167.12 308.064 163.616 308.064 158.864V146.552H317.064V158.288C317.064 160.832 317.784 162.68 319.224 163.832C320.712 164.984 322.752 165.56 325.344 165.56C327.072 165.56 328.8 165.344 330.528 164.912C332.256 164.48 333.96 163.88 335.64 163.112V169.808ZM334.992 185V146.552H343.992V185H334.992ZM374.023 185.504C369.751 185.504 366.007 184.664 362.791 182.984C359.623 181.256 357.151 178.904 355.375 175.928C353.647 172.952 352.783 169.568 352.783 165.776C352.783 161.936 353.623 158.552 355.303 155.624C357.031 152.648 359.383 150.32 362.359 148.64C365.383 146.96 368.815 146.12 372.655 146.12C376.399 146.12 379.735 146.936 382.663 148.568C385.591 150.2 387.895 152.504 389.575 155.48C391.255 158.456 392.095 161.96 392.095 165.992C392.095 166.376 392.071 166.808 392.023 167.288C392.023 167.768 391.999 168.224 391.951 168.656H359.911V162.68H387.199L383.671 164.552C383.719 162.344 383.263 160.4 382.303 158.72C381.343 157.04 380.023 155.72 378.343 154.76C376.711 153.8 374.815 153.32 372.655 153.32C370.447 153.32 368.503 153.8 366.823 154.76C365.191 155.72 363.895 157.064 362.935 158.792C362.023 160.472 361.567 162.464 361.567 164.768V166.208C361.567 168.512 362.095 170.552 363.151 172.328C364.207 174.104 365.695 175.472 367.615 176.432C369.535 177.392 371.743 177.872 374.239 177.872C376.399 177.872 378.343 177.536 380.071 176.864C381.799 176.192 383.335 175.136 384.679 173.696L389.503 179.24C387.775 181.256 385.591 182.816 382.951 183.92C380.359 184.976 377.383 185.504 374.023 185.504ZM401.939 185V146.552H410.939V162.176H430.307V146.552H439.307V185H430.307V169.808H410.939V185H401.939ZM451.368 185V146.552H460.368V171.896L481.608 146.552H489.816V185H480.816V159.656L459.648 185H451.368ZM519.851 185.504C515.579 185.504 511.835 184.664 508.619 182.984C505.451 181.256 502.979 178.904 501.203 175.928C499.475 172.952 498.611 169.568 498.611 165.776C498.611 161.936 499.451 158.552 501.131 155.624C502.859 152.648 505.211 150.32 508.187 148.64C511.211 146.96 514.643 146.12 518.483 146.12C522.227 146.12 525.563 146.936 528.491 148.568C531.419 150.2 533.723 152.504 535.403 155.48C537.083 158.456 537.923 161.96 537.923 165.992C537.923 166.376 537.899 166.808 537.851 167.288C537.851 167.768 537.827 168.224 537.779 168.656H505.739V162.68H533.027L529.499 164.552C529.547 162.344 529.091 160.4 528.131 158.72C527.171 157.04 525.851 155.72 524.171 154.76C522.539 153.8 520.643 153.32 518.483 153.32C516.275 153.32 514.331 153.8 512.651 154.76C511.019 155.72 509.723 157.064 508.763 158.792C507.851 160.472 507.395 162.464 507.395 164.768V166.208C507.395 168.512 507.923 170.552 508.979 172.328C510.035 174.104 511.523 175.472 513.443 176.432C515.363 177.392 517.571 177.872 520.067 177.872C522.227 177.872 524.171 177.536 525.899 176.864C527.627 176.192 529.163 175.136 530.507 173.696L535.331 179.24C533.603 181.256 531.419 182.816 528.779 183.92C526.187 184.976 523.211 185.504 519.851 185.504Z" fill="black"/>
<path d="M155 192H225" stroke="black" stroke-linecap="round"/>
<defs>
<linearGradient id="paint0_linear_37_197" x1="153.895" y1="30.921" x2="318.395" y2="256.645" gradientUnits="userSpaceOnUse">
<stop stop-color="#ED7B50"/>
<stop offset="0.541667" stop-color="#488AEA"/>
<stop offset="1" stop-color="#2C2C2C"/>
</linearGradient>
<linearGradient id="paint1_linear_37_197" x1="46.4035" y1="114.219" x2="180.57" y2="298.32" gradientUnits="userSpaceOnUse">
<stop stop-color="#ED7B50"/>
<stop offset="0.541667" stop-color="#488AEA"/>
<stop offset="1" stop-color="#2C2C2C"/>
</linearGradient>
</defs>
</svg>
